<svg width="110" height="88" xmlns="http://www.w3.org/2000/svg">
  <path fill="none" stroke="#262626" stroke-width="4" d="m94.32079,14.96529l0,0c0,7.16054 -20.07543,10.62819 -44.61847,10.62819c-24.54303,0 -44.2597,-3.46765 -44.2597,-10.62819m0,0l0,0c0,-7.16053 19.89606,-12.96529 44.43908,-12.96529c24.54304,0 44.43909,5.80476 44.43909,12.96529l0,51.8612c0,7.16053 -20.2548,12.42594 -44.79784,12.42594c-24.54303,0 -44.08033,-5.26542 -44.08033,-12.42594l0,-51.8612z" id="svg_2"/>
  <path fill="none" stroke="#262626" stroke-width="4" d="m103.37921,21.63195l0,0c0,7.16054 -20.58498,9.09953 -44.61847,9.60908c-24.03348,0.50955 -44.2597,-2.44854 -44.2597,-9.60908m0,0l0,0c0,-7.16053 19.89606,-12.96529 44.43908,-12.96529c24.54304,0 44.43909,5.80476 44.43909,12.96529l0,51.8612c0,7.16053 -20.2548,12.42594 -44.79784,12.42594c-24.54303,0 -44.08033,-5.26542 -44.08033,-12.42594l0,-51.8612z" id="svg_1"/>
</svg>