<svg width="100.00000000000001" height="80" xmlns="http://www.w3.org/2000/svg">
  <path id="svg_2" d="m-16.2292,48.83856l1.31579,0l0,1.21099c-0.65789,0 -0.65789,0.46141 -1.31579,0.19925l0,-1.41024z" stroke-width="4" stroke="#262626" fill="none"/>
  <path id="svg_6" d="m42.51491,7.12645c0,-3.52969 2.97081,-6.38874 6.63847,-6.38874c3.66766,0 6.63846,2.85905 6.63846,6.38874c0,3.52969 -2.9708,6.38874 -6.63846,6.38874c-3.66766,0 -6.63847,-2.85905 -6.63847,-6.38874zm22.31966,18.08423l0,-3.2265c0,-3.39475 -2.85796,-6.14717 -6.38745,-6.14717l-18.60805,0c-3.52744,0 -6.38745,2.75242 -6.38745,6.14717l0,3.2265c-0.00617,0.07324 -0.01029,0.14846 -0.01029,0.22467l0,18.58404c0,1.44401 1.21559,2.61386 2.71604,2.61386c1.4984,0 2.71706,-1.16986 2.71706,-2.61386l0,-18.3089l1.82131,0l0,20.92473l0.01337,0l0,29.56602c0,1.92204 1.62181,3.48382 3.62103,3.48382c2.00026,0 3.62103,-1.5598 3.62103,-3.48382l0,-29.56602l2.389,0l0,29.56602c0,1.92204 1.62281,3.48382 3.62103,3.48382c2.00025,0 3.62102,-1.5598 3.62102,-3.48382l0,-29.56602l0.01131,0l0,-20.92473l1.82131,0l0,18.3079c0,1.44401 1.21866,2.61485 2.71706,2.61485c1.50047,0 2.71604,-1.17084 2.71604,-2.61485l0,-18.58404c-0.00102,-0.0772 -0.0072,-0.15044 -0.01337,-0.22368l0,0z" stroke="#262626" fill="none"/>

</svg>